<?xml version="1.0" standalone="no"?><!DOCTYPE svg PUBLIC "-//W3C//DTD SVG 1.1//EN" "http://www.w3.org/Graphics/SVG/1.1/DTD/svg11.dtd"><svg class="icon" width="200px" height="200.00px" viewBox="0 0 1024 1024" version="1.1" xmlns="http://www.w3.org/2000/svg"><path fill="#a2a2a2" d="M531.2615 83.307567c116.984784 109.134714 189.692202 261.150469 189.692202 429.357755 0 168.173229-72.707418 320.184119-189.658145 429.352889l41.006706 68.844414c1.497279-1.40119 3.022533-2.674668 4.51373-4.075858 286.874228-272.891518 286.874228-715.357455 0-988.244108-1.525254-1.40119-3.049291-2.712373-4.51373-4.080723L531.2615 83.307567 531.2615 83.307567zM297.141109 512.631265c0 56.886862-25.315079 108.081388-65.671059 144.227716l39.201701 67.073466c58.444956-53.403347 95.001181-128.287962 95.001181-211.301182 0-82.979164-36.556225-157.834586-95.001181-211.23915L231.47005 368.465581C271.82603 404.583934 297.141109 455.773595 297.141109 512.631265L297.141109 512.631265zM423.124161 156.356769l-44.153303 71.772075c78.062835 72.081018 126.633779 172.873055 126.633779 284.502422 0 111.658559-48.570944 212.484652-126.633779 284.564454l44.120462 71.772075c1.496062-1.36835 3.083348-2.674668 4.54657-4.077074 98.892159-94.097462 153.350048-219.205987 153.350048-352.225398 0-133.053468-54.457889-258.161993-153.350048-352.231479C426.174669 159.031436 424.587383 157.757959 423.124161 156.356769L423.124161 156.356769zM423.124161 156.356769" /></svg>