<?xml version="1.0" standalone="no"?><!DOCTYPE svg PUBLIC "-//W3C//DTD SVG 1.1//EN" "http://www.w3.org/Graphics/SVG/1.1/DTD/svg11.dtd"><svg class="icon" width="200px" height="200.00px" viewBox="0 0 1024 1024" version="1.1" xmlns="http://www.w3.org/2000/svg"><path fill="#6f7378" d="M396.75904 563.14112l76.79232 0c7.06688 0 12.79872-5.73184 12.79872-12.79872l0-76.79232c0-7.06688-5.73184-12.79872-12.79872-12.79872l-76.79232 0c-7.06688 0-12.79872 5.73056-12.79872 12.79872l0 76.79232C383.96032 557.41056 389.69088 563.14112 396.75904 563.14112zM550.3424 563.14112l76.79232 0c7.06688 0 12.79872-5.73184 12.79872-12.79872l0-76.79232c0-7.06688-5.73184-12.79872-12.79872-12.79872l-76.79232 0c-7.06688 0-12.79872 5.73056-12.79872 12.79872l0 76.79232C537.54368 557.41056 543.27552 563.14112 550.3424 563.14112zM243.1744 409.55776l76.79232 0c7.06688 0 12.79872-5.73184 12.79872-12.79872l0-76.79232c0-7.06688-5.73184-12.79872-12.79872-12.79872L243.1744 307.168c-7.06688 0-12.79872 5.73184-12.79872 12.79872l0 76.79232C230.37568 403.82592 236.10752 409.55776 243.1744 409.55776zM550.3424 409.55776l76.79232 0c7.06688 0 12.79872-5.73184 12.79872-12.79872l0-76.79232c0-7.06688-5.73184-12.79872-12.79872-12.79872l-76.79232 0c-7.06688 0-12.79872 5.73184-12.79872 12.79872l0 76.79232C537.54368 403.82592 543.27552 409.55776 550.3424 409.55776zM396.75904 409.55776l76.79232 0c7.06688 0 12.79872-5.73184 12.79872-12.79872l0-76.79232c0-7.06688-5.73184-12.79872-12.79872-12.79872l-76.79232 0c-7.06688 0-12.79872 5.73184-12.79872 12.79872l0 76.79232C383.96032 403.82592 389.69088 409.55776 396.75904 409.55776zM511.94624 0C229.20576 0 0 229.20576 0 511.94624s229.20576 511.94624 511.94624 511.94624 511.94624-229.20576 511.94624-511.94624S794.68672 0 511.94624 0zM511.94624 972.69888c-254.46528 0-460.75264-206.28608-460.75264-460.75264S257.48096 51.19488 511.94624 51.19488s460.75136 206.28608 460.75136 460.75136S766.4128 972.69888 511.94624 972.69888zM780.71808 307.168l-76.79232 0c-7.06688 0-12.79872 5.73184-12.79872 12.79872l0 76.79232c0 7.06688 5.73184 12.79872 12.79872 12.79872l76.79232 0c7.06688 0 12.79872-5.73184 12.79872-12.79872l0-76.79232C793.5168 312.89984 787.78624 307.168 780.71808 307.168zM332.76544 550.3424l0-76.79232c0-7.06688-5.73184-12.79872-12.79872-12.79872L243.1744 460.75136c-7.06688 0-12.79872 5.73056-12.79872 12.79872l0 76.79232c0 7.06688 5.73184 12.79872 12.79872 12.79872l76.79232 0C327.0336 563.14112 332.76544 557.41056 332.76544 550.3424zM780.71808 460.75264l-76.79232 0c-7.06688 0-12.79872 5.73056-12.79872 12.79872l0 76.79232c0 7.06688 5.73184 12.79872 12.79872 12.79872l76.79232 0c7.06688 0 12.79872-5.73184 12.79872-12.79872l0-76.79232C793.5168 466.4832 787.78624 460.75264 780.71808 460.75264zM729.52448 665.53088 294.36928 665.53088c-7.06688 0-12.79872 5.73184-12.79872 12.79872l0 25.59744c0 7.06688 5.73184 12.79872 12.79872 12.79872l435.1552 0c7.06688 0 12.79872-5.73184 12.79872-12.79872l0-25.59744C742.3232 671.26144 736.59136 665.53088 729.52448 665.53088z" /></svg>