<?xml version="1.0" standalone="no"?><!DOCTYPE svg PUBLIC "-//W3C//DTD SVG 1.1//EN" "http://www.w3.org/Graphics/SVG/1.1/DTD/svg11.dtd"><svg t="1515754069500" class="icon" style="" viewBox="0 0 1024 1024" version="1.1" xmlns="http://www.w3.org/2000/svg" p-id="7981" xmlns:xlink="http://www.w3.org/1999/xlink" width="128" height="128"><defs><style type="text/css"></style></defs><path d="M207.36 476.16a66.56 64 0 1 0 133.12 0 66.56 64 0 1 0-133.12 0Z" fill="#6f7378" p-id="7982"></path><path d="M455.68 476.16a66.56 64 0 1 0 133.12 0 66.56 64 0 1 0-133.12 0Z" fill="#6f7378" p-id="7983"></path><path d="M701.44 476.16a66.56 64 0 1 0 133.12 0 66.56 64 0 1 0-133.12 0Z" fill="#6f7378" p-id="7984"></path><path d="M893.44 983.04L670.72 870.4c-51.2 15.36-104.96 20.48-158.72 20.48-281.6 0-512-194.56-512-432.64C0 220.16 230.4 25.6 512 25.6s512 194.56 512 432.64c0 133.12-69.12 253.44-189.44 337.92l58.88 186.88z m-217.6-168.96l130.56 66.56-33.28-107.52 20.48-12.8c112.64-71.68 179.2-181.76 179.2-302.08C972.8 248.32 765.44 76.8 512 76.8S51.2 248.32 51.2 458.24s207.36 381.44 460.8 381.44c51.2 0 99.84-7.68 145.92-20.48l17.92-5.12z" fill="#6f7378" p-id="7985"></path></svg>