<?xml version="1.0" standalone="no"?><!DOCTYPE svg PUBLIC "-//W3C//DTD SVG 1.1//EN" "http://www.w3.org/Graphics/SVG/1.1/DTD/svg11.dtd"><svg class="icon" width="200px" height="200.00px" viewBox="0 0 1024 1024" version="1.1" xmlns="http://www.w3.org/2000/svg"><path fill="#6f7378" d="M582.892308 250.092308 537.6 295.384615c0 0 0 0 0 0 124.061538 124.061538 124.061538 322.953846 0 447.015385l45.292308 45.292308C730.584615 638.030769 730.584615 399.753846 582.892308 250.092308 582.892308 250.092308 582.892308 250.092308 582.892308 250.092308zM494.276923 340.676923C494.276923 340.676923 494.276923 340.676923 494.276923 340.676923l-45.292308 45.292308c0 0 0 0 0 0 74.830769 74.830769 74.830769 192.984615 0 267.815385l45.292308 45.292308C592.738462 598.646154 592.738462 439.138462 494.276923 340.676923zM405.661538 429.292308 315.076923 517.907692l88.615385 88.615385C454.892308 559.261538 454.892308 478.523077 405.661538 429.292308 405.661538 429.292308 405.661538 429.292308 405.661538 429.292308zM504.123077 23.630769C232.369231 23.630769 9.846154 246.153846 9.846154 517.907692c0 271.753846 222.523077 494.276923 494.276923 494.276923 271.753846 0 494.276923-222.523077 494.276923-494.276923C1000.369231 246.153846 777.846154 23.630769 504.123077 23.630769zM504.123077 972.8c-250.092308 0-452.923077-202.830769-452.923077-452.923077s202.830769-452.923077 452.923077-452.923077 452.923077 202.830769 452.923077 452.923077S754.215385 972.8 504.123077 972.8z" /></svg>